<svg xmlns="http://www.w3.org/2000/svg" xmlns:xlink="http://www.w3.org/1999/xlink" width="18" height="12.857" viewBox="0 0 18 12.857"><defs><style>.a{fill:none;}.b{clip-path:url(#a);}.c{fill:#b7bec5;}</style><clipPath id="a"><rect class="a" width="18" height="12.857"/></clipPath></defs><g class="b"><path class="c" d="M3.286,8.571H18.714a1.286,1.286,0,0,0,0-2.571H3.286a1.286,1.286,0,0,0,0,2.571Zm15.429,2.571H3.286a1.286,1.286,0,1,0,0,2.571H18.714a1.286,1.286,0,0,0,0-2.571Zm0,5.143H3.286a1.286,1.286,0,1,0,0,2.571H18.714a1.286,1.286,0,0,0,0-2.571Z" transform="translate(-2 -6)"/></g></svg>