<svg xmlns="http://www.w3.org/2000/svg" width="18" height="18" viewBox="0 0 18 18"><defs><style>.a{fill:#fff;}</style></defs><path class="a" d="M15-12a2.883,2.883,0,0,0-.891-2.109A2.883,2.883,0,0,0,12-15v-2.016a4.828,4.828,0,0,1,3.539,1.477A4.828,4.828,0,0,1,17.016-12Zm3.984,0a6.734,6.734,0,0,0-2.039-4.945A6.734,6.734,0,0,0,12-18.984V-21a8.679,8.679,0,0,1,6.375,2.625A8.679,8.679,0,0,1,21-12Zm1.031,3.516a.954.954,0,0,1,.7.281A.954.954,0,0,1,21-7.5v3.516a.954.954,0,0,1-.281.7.954.954,0,0,1-.7.281A16.389,16.389,0,0,1,7.992-7.992,16.389,16.389,0,0,1,3-20.016a.954.954,0,0,1,.281-.7.954.954,0,0,1,.7-.281H7.5a.954.954,0,0,1,.7.281.954.954,0,0,1,.281.7,11.192,11.192,0,0,0,.563,3.563.959.959,0,0,1-.234,1.031l-2.2,2.2a15.016,15.016,0,0,0,6.609,6.609l2.2-2.2a.959.959,0,0,1,1.031-.234A11.192,11.192,0,0,0,20.016-8.484Z" transform="translate(-3 21)"/></svg>