<svg xmlns="http://www.w3.org/2000/svg" width="18" height="18" viewBox="0 0 18 18"><defs><style>.a{fill:#b7bec5;}</style></defs><path class="a" d="M18.984-21a1.932,1.932,0,0,1,1.406.609A1.932,1.932,0,0,1,21-18.984V-5.016a1.932,1.932,0,0,1-.609,1.406A1.932,1.932,0,0,1,18.984-3H5.016a1.908,1.908,0,0,1-1.43-.609A1.969,1.969,0,0,1,3-5.016V-9H5.016v3.984H18.984V-18.984H5.016V-15H3v-3.984a1.969,1.969,0,0,1,.586-1.406A1.908,1.908,0,0,1,5.016-21ZM10.078-8.391l2.578-2.625H3v-1.969h9.656l-2.578-2.625,1.406-1.406L16.5-12,11.484-6.984Z" transform="translate(-3 21)"/></svg>