<svg xmlns="http://www.w3.org/2000/svg" width="87.479" height="22.391" viewBox="0 0 87.479 22.391"><defs><style>.a{fill:#3a559f;}</style></defs><g transform="translate(-219.156 -153.572)"><g transform="translate(219.156 153.572)"><path class="a" d="M230.352,153.572a11.14,11.14,0,0,0-7.771,3.139c-.072.07-.144.14-.213.21a11.186,11.186,0,0,0-.129,15.557l.01.019.018.009q.2.213.416.414a11.187,11.187,0,0,0,15.5-.157l.142-.141a11.194,11.194,0,0,0-7.975-19.05Zm-2.835,8.271a4.076,4.076,0,1,1-.023,5.827l-.049-.047a4.069,4.069,0,0,1,0-5.707ZM223.18,157.7c.055-.056.111-.11.167-.165a2.438,2.438,0,0,1,3.376,3.515l-.072.07a2.438,2.438,0,0,1-3.471-3.42Zm14.826,12.944a2.306,2.306,0,0,1-.579,1.112l-.119.118a9.937,9.937,0,0,1-13.769.138c-.124-.117-.246-.238-.358-.355a1.586,1.586,0,0,1-.1-.148l-.03-.047-.039-.056a.828.828,0,0,1-.051-.076,1.585,1.585,0,0,1-.075-.161l-.023-.054-.029-.062c-.013-.027-.027-.055-.038-.084a2.343,2.343,0,0,1-.07-.267c0-.02-.01-.04-.016-.059a.466.466,0,0,1-.015-.056,2.314,2.314,0,0,1,2.281-2.712l.089,0c.044,0,.089,0,.133.007a2.293,2.293,0,0,1,1.367.624l.084.082a5.319,5.319,0,0,0,7.44-.026l.032-.03a2.307,2.307,0,0,1,3.888,2.108Z" transform="translate(-219.156 -153.572)"/></g><g transform="translate(246.577 158.569)"><path class="a" d="M308.744,172.911a3.99,3.99,0,0,1-4.063,3.98H302.94v2.62h-2.654V168.931h4.4A3.99,3.99,0,0,1,308.744,172.911Zm-2.654,0a1.419,1.419,0,0,0-1.41-1.493H302.94V174.4h1.742A1.419,1.419,0,0,0,306.091,172.911Z" transform="translate(-300.286 -168.737)"/><path class="a" d="M329.73,168.931h2.488v10.581H329.73Z" transform="translate(-319.778 -168.737)"/><path class="a" d="M350.35,175.245v8.293h-2.488v-.78a3.113,3.113,0,0,1-2.471,1.012,4.4,4.4,0,0,1,0-8.758,3.114,3.114,0,0,1,2.471,1.012v-.78Zm-2.488,4.146a1.974,1.974,0,1,0-1.974,2.023A1.894,1.894,0,0,0,347.862,179.391Z" transform="translate(-327.522 -172.763)"/><path class="a" d="M380.948,175.7l-2.836,8.044c-.929,2.637-2.4,3.682-4.727,3.566v-2.322a1.848,1.848,0,0,0,2.073-1.377l-3.3-7.911h2.737l1.841,5.075,1.559-5.075Z" transform="translate(-347.866 -173.218)"/><path class="a" d="M405.014,181.547a2.165,2.165,0,0,0,1.592-.63l1.99,1.144a4.208,4.208,0,0,1-3.615,1.708,4.381,4.381,0,1,1-.183-8.758,4.187,4.187,0,0,1,4.213,4.379,4.832,4.832,0,0,1-.1,1h-5.888A1.887,1.887,0,0,0,405.014,181.547Zm1.526-3.018a1.868,1.868,0,0,0-3.566,0Z" transform="translate(-366.554 -172.763)"/><path class="a" d="M436.176,175.21v2.819a1.961,1.961,0,0,0-2.488,1.89v3.749H431.2v-8.293h2.488v1.476A2.491,2.491,0,0,1,436.176,175.21Z" transform="translate(-386.953 -172.894)"/><g transform="translate(52.103 0)"><path class="a" d="M454.606,172.779a3.605,3.605,0,0,1,3.825-4.422c2.4,0,3.889,1.565,3.889,3.437a3.724,3.724,0,0,1-2.065,3.26l-1.985,1.178a1.773,1.773,0,0,0-.71.71H462.4v2.13h-7.955a4.789,4.789,0,0,1,2.469-4.615l1.711-1c.823-.484,1.146-.92,1.146-1.614a1.252,1.252,0,0,0-1.4-1.243,1.4,1.4,0,0,0-1.469,1.549,2.24,2.24,0,0,0,.1.646Z" transform="translate(-454.445 -168.357)"/></g><path class="a" d="M396.754,207.013h-1.028V210.1h-.751v-3.091h-1.023v-.719h2.8Z" transform="translate(-362.294 -193.472)"/><path class="a" d="M407.861,209.385v.718h-2.356v-3.809h2.329v.719h-1.578v.811H407.7v.707h-1.442v.854Z" transform="translate(-369.943 -193.472)"/><path class="a" d="M415.612,208.05a1.931,1.931,0,0,1,1.981-1.981,1.9,1.9,0,0,1,1.638.9l-.648.375a1.1,1.1,0,0,0-.99-.544,1.249,1.249,0,0,0,0,2.5,1.1,1.1,0,0,0,.99-.538l.648.375a1.884,1.884,0,0,1-1.638.9A1.934,1.934,0,0,1,415.612,208.05Z" transform="translate(-376.634 -193.323)"/><path class="a" d="M431.544,206.294V210.1H430.8v-1.578h-1.415V210.1h-.751v-3.809h.751v1.513H430.8v-1.513Z" transform="translate(-385.254 -193.472)"/><path class="a" d="M449.13,209.385v.718h-2.2v-3.809h.751v3.091Z" transform="translate(-397.364 -193.472)"/><path class="a" d="M458.514,209.418H457l-.228.685h-.811l1.333-3.809h.93l1.339,3.809h-.816Zm-.234-.7-.523-1.556-.523,1.556Z" transform="translate(-403.342 -193.472)"/><path class="a" d="M472.121,209a1.119,1.119,0,0,1-1.186,1.1h-1.616v-3.809h1.5a1.089,1.089,0,0,1,1.159,1.072.944.944,0,0,1-.359.762A.966.966,0,0,1,472.121,209Zm-2.052-2v.838h.751a.419.419,0,0,0,0-.838Zm1.306,1.954a.43.43,0,0,0-.441-.446h-.865v.9h.865A.432.432,0,0,0,471.375,208.95Z" transform="translate(-412.188 -193.472)"/></g></g></svg>