<svg xmlns="http://www.w3.org/2000/svg" xmlns:xlink="http://www.w3.org/1999/xlink" width="55" height="55" viewBox="0 0 55 55"><defs><style>.a{fill:none;}.b{clip-path:url(#a);}.c{fill:#fff;}.d{fill:#b7bec5;}.e{filter:url(#b);}</style><clipPath id="a"><rect class="a" width="55" height="55"/></clipPath><filter id="b" x="0" y="0" width="55" height="55" filterUnits="userSpaceOnUse"><feOffset input="SourceAlpha"/><feGaussianBlur stdDeviation="5" result="c"/><feFlood flood-opacity="0.102"/><feComposite operator="in" in2="c"/><feComposite in="SourceGraphic"/></filter></defs><g class="b" transform="translate(0)"><g transform="translate(34.308 23.667)"><g class="e" transform="matrix(1, 0, 0, 1, -34.31, -23.67)"><path class="c" d="M12.5,0A12.5,12.5,0,1,1,0,12.5,12.5,12.5,0,0,1,12.5,0Z" transform="translate(15 15)"/></g><g transform="translate(-11.868 -2.169)"><ellipse class="d" cx="2.775" cy="2.738" rx="2.775" ry="2.738" transform="translate(2.255)"/><path class="d" d="M5.03,0A5,5,0,0,0,0,4.962H10.06A5,5,0,0,0,5.03,0Z" transform="translate(0 6.844)"/></g></g></g></svg>